<?xml version="1.0" standalone="no"?>
<!DOCTYPE svg PUBLIC "-//W3C//DTD SVG 20010904//EN"
 "http://www.w3.org/TR/2001/REC-SVG-20010904/DTD/svg10.dtd">
<svg version="1.0" xmlns="http://www.w3.org/2000/svg"
 width="512.000000pt" height="512.000000pt" viewBox="0 0 512.000000 512.000000"
 preserveAspectRatio="xMidYMid meet">
<metadata>
Created by potrace 1.14, written by Peter Selinger 2001-2017
</metadata>
<g transform="translate(0.000000,512.000000) scale(0.100000,-0.100000)"
fill="#000000" stroke="none">
<path d="M2057 4567 l-497 -492 2 -723 3 -723 230 226 c127 124 350 346 498
492 l267 266 278 -276 c152 -152 376 -373 497 -492 l220 -216 3 723 2 723
-497 492 c-274 271 -500 492 -503 492 -3 0 -229 -221 -503 -492z"/>
<path d="M2057 2727 l-498 -492 1 -239 0 -238 220 218 c394 391 775 764 780
764 6 0 330 -317 728 -712 l272 -271 0 240 0 240 -496 489 c-272 269 -498 490
-502 491 -4 1 -231 -219 -505 -490z"/>
<path d="M2464 2277 c-50 -51 -274 -273 -498 -493 l-406 -401 2 -236 3 -236
495 489 c272 269 497 489 500 489 3 0 228 -220 500 -489 l495 -489 3 236 2
237 -207 204 c-115 112 -339 334 -499 493 -161 159 -293 289 -295 289 -2 -1
-45 -42 -95 -93z"/>
<path d="M2529 1492 c-14 -15 -238 -236 -498 -492 l-471 -465 2 -237 3 -236
495 489 c272 269 497 489 500 489 3 0 228 -220 500 -489 l495 -489 3 237 3
236 -268 263 c-148 145 -372 367 -499 493 -127 126 -232 229 -235 229 -2 -1
-16 -13 -30 -28z"/>
</g>
</svg>
