<?xml version="1.0" encoding="utf-8"?>
<!-- Generator: Adobe Illustrator 25.0.0, SVG Export Plug-In . SVG Version: 6.00 Build 0)  -->
<svg version="1.1" id="Capa_2" xmlns="http://www.w3.org/2000/svg" xmlns:xlink="http://www.w3.org/1999/xlink" x="0px" y="0px"
	 viewBox="0 0 156 92" style="enable-background:new 0 0 156 92;" xml:space="preserve">
<style type="text/css">
	.st0{fill:#9D9D9C;}
	.st1{fill:#F8C300;}
</style>
<g>
	<polygon class="st0" points="21.7,51.6 21.7,59.3 0.5,59.3 0.5,26.8 21.3,26.8 21.3,34.6 9.4,34.6 9.4,39.4 20.1,39.4 20.1,46.7 
		9.4,46.7 9.4,51.6 	"/>
	<path class="st0" d="M47.7,38.6c0-2.3-1.6-3.9-3.9-3.9H40v7.9h3.8C46.1,42.5,47.7,40.9,47.7,38.6 M56.9,38.6
		c0,6.8-5.1,11.8-12,11.8H40v9h-9V26.8h13.8C51.7,26.8,56.9,31.8,56.9,38.6"/>
	<path class="st0" d="M100.3,60.2c-9.9,0-17.3-7.3-17.3-17c0-9.8,7.4-17.1,17.3-17.1c8.5,0,15.1,5.6,16.4,13.9h-9.1
		c-1.1-3.3-3.9-5.5-7.3-5.5c-4.6,0-8,3.7-8,8.7c0,5,3.4,8.7,8,8.7c3.6,0,6.4-2.4,7.4-6h9.2C115.6,54.4,108.9,60.2,100.3,60.2
		L100.3,60.2z"/>
	<path class="st0" d="M137.9,37L134.4,47h7.2L137.9,37z M143.7,54.1h-11.5l-1.8,5.3h-9.6l12.8-32.5h8.8l13,32.5h-9.9L143.7,54.1z"/>
	<rect x="1.4" y="66.8" class="st0" width="0.7" height="6.9"/>
	<polygon class="st0" points="17.2,72.7 17.2,72.7 17.2,66.8 17.9,66.8 17.9,73.8 17.1,73.8 12.9,67.8 12.9,67.8 12.9,73.8 
		12.2,73.8 12.2,66.8 13.1,66.8 	"/>
	<polygon class="st0" points="31.4,72.5 33.7,66.8 34.8,66.8 34.8,73.8 34.1,73.8 34.1,67.8 34.1,67.8 31.6,73.8 31.2,73.8 
		28.7,67.8 28.7,67.8 28.7,73.8 28,73.8 28,66.8 29.1,66.8 	"/>
	<path class="st0" d="M50.9,70.3c0-0.4-0.1-0.8-0.2-1.1c-0.1-0.4-0.3-0.7-0.6-1c-0.2-0.3-0.5-0.5-0.9-0.7c-0.4-0.2-0.8-0.2-1.2-0.2
		c-0.4,0-0.8,0.1-1.2,0.2c-0.4,0.2-0.7,0.4-0.9,0.7c-0.2,0.3-0.4,0.6-0.6,1c-0.1,0.4-0.2,0.7-0.2,1.1c0,0.4,0.1,0.8,0.2,1.1
		c0.1,0.4,0.3,0.7,0.6,1c0.2,0.3,0.5,0.5,0.9,0.7c0.4,0.2,0.8,0.2,1.2,0.2c0.4,0,0.8-0.1,1.2-0.2c0.4-0.2,0.7-0.4,0.9-0.7
		c0.2-0.3,0.4-0.6,0.6-1C50.8,71.1,50.9,70.7,50.9,70.3 M51.6,70.3c0,0.5-0.1,1-0.3,1.5c-0.2,0.4-0.4,0.8-0.8,1.2
		c-0.3,0.3-0.7,0.6-1.1,0.8C49,73.9,48.5,74,48,74c-0.5,0-1-0.1-1.4-0.3c-0.4-0.2-0.8-0.4-1.1-0.8c-0.3-0.3-0.6-0.7-0.8-1.2
		c-0.2-0.4-0.3-0.9-0.3-1.5c0-0.5,0.1-1,0.3-1.5c0.2-0.4,0.4-0.8,0.8-1.2c0.3-0.3,0.7-0.6,1.1-0.8c0.4-0.2,0.9-0.3,1.4-0.3
		c0.5,0,1,0.1,1.4,0.3c0.4,0.2,0.8,0.4,1.1,0.8c0.3,0.3,0.6,0.7,0.8,1.2C51.5,69.3,51.6,69.8,51.6,70.3"/>
	<path class="st0" d="M61.9,73.1h1.4c0.3,0,0.5,0,0.7-0.1c0.2-0.1,0.4-0.1,0.6-0.2c0.2-0.1,0.3-0.2,0.4-0.4c0.1-0.2,0.1-0.4,0.1-0.6
		c0-0.5-0.1-0.8-0.4-1s-0.7-0.3-1.3-0.3h-1.4V73.1z M61.9,69.9h1.4c0.2,0,0.3,0,0.5-0.1c0.2,0,0.3-0.1,0.5-0.2
		c0.1-0.1,0.2-0.2,0.3-0.4c0.1-0.2,0.1-0.3,0.1-0.6c0-0.1,0-0.2,0-0.3c0-0.1-0.1-0.3-0.2-0.4c-0.1-0.1-0.3-0.2-0.4-0.3
		c-0.2-0.1-0.5-0.1-0.8-0.1h-1.4V69.9z M61.2,66.8h2.1c0.3,0,0.6,0,0.8,0.1c0.3,0.1,0.5,0.2,0.7,0.3c0.2,0.1,0.4,0.3,0.5,0.5
		c0.1,0.2,0.2,0.5,0.2,0.8c0,0.4-0.1,0.7-0.3,1c-0.2,0.3-0.5,0.5-0.9,0.5v0c0.5,0,0.9,0.2,1.2,0.5c0.3,0.3,0.4,0.7,0.4,1.2
		c0,0.1,0,0.3-0.1,0.5c-0.1,0.2-0.2,0.4-0.3,0.6c-0.2,0.2-0.4,0.4-0.8,0.6c-0.3,0.2-0.8,0.2-1.3,0.2h-2.1V66.8z"/>
	<rect x="75.5" y="66.8" class="st0" width="0.7" height="6.9"/>
	<polygon class="st0" points="87,73.1 90.2,73.1 90.2,73.8 86.3,73.8 86.3,66.8 87,66.8 	"/>
	<rect x="99.4" y="66.8" class="st0" width="0.7" height="6.9"/>
	<path class="st0" d="M111,71.3h3l-1.5-3.6L111,71.3z M110,73.8h-0.8l3-6.9h0.7l3,6.9h-0.8l-0.8-1.8h-3.5L110,73.8z"/>
	<path class="st0" d="M125.7,69.9h1.3c0.3,0,0.6,0,0.8-0.1c0.2-0.1,0.4-0.2,0.5-0.3c0.1-0.1,0.2-0.2,0.3-0.4
		c0.1-0.1,0.1-0.3,0.1-0.5c0-0.2,0-0.3-0.1-0.5c-0.1-0.1-0.2-0.3-0.3-0.4c-0.1-0.1-0.3-0.2-0.5-0.3c-0.2-0.1-0.5-0.1-0.8-0.1h-1.3
		V69.9z M125.7,73.8H125v-6.9h2.1c0.7,0,1.3,0.2,1.7,0.5c0.4,0.3,0.6,0.8,0.6,1.4c0,0.5-0.2,0.9-0.5,1.2c-0.3,0.3-0.7,0.5-1.3,0.6
		l2,3.3h-0.9l-1.9-3.2h-1.2V73.8z"/>
	<rect x="139" y="66.8" class="st0" width="0.7" height="6.9"/>
	<path class="st0" d="M150.6,71.3h3l-1.5-3.6L150.6,71.3z M149.6,73.8h-0.8l3-6.9h0.7l3,6.9h-0.8l-0.8-1.8h-3.5L149.6,73.8z"/>
	<polygon class="st1" points="62.2,30.2 62.2,40.8 70.3,33.6 78.4,40.8 78.4,30.2 70.3,22.9 	"/>
	<polygon class="st1" points="62.2,43.7 62.2,47.2 70.3,39.9 78.4,47.2 78.4,43.7 70.3,36.5 	"/>
	<polygon class="st1" points="62.2,50 62.2,53.5 70.3,46.2 78.4,53.5 78.4,50 70.3,42.7 	"/>
	<polygon class="st1" points="62.2,56.2 62.2,59.7 70.3,52.5 78.4,59.7 78.4,56.2 70.3,49 	"/>
	<polygon class="st0" points="12.1,18 19.8,18 13.3,23.5 8.2,23.5 	"/>
	<path class="st0" d="M151.5,31.2h0.5v-1.3h0.6l0.9,1.3h0.5l-1-1.3c0.2,0,0.5-0.1,0.6-0.2c0.2-0.1,0.3-0.3,0.3-0.6
		c0-0.3-0.1-0.5-0.3-0.7c-0.2-0.1-0.5-0.2-0.9-0.2h-1.2V31.2z M152,28.5h0.7c0.1,0,0.2,0,0.3,0c0.1,0,0.2,0,0.2,0.1
		c0.1,0,0.1,0.1,0.2,0.1c0,0.1,0.1,0.1,0.1,0.2c0,0.1,0,0.2-0.1,0.3c0,0.1-0.1,0.1-0.2,0.1c-0.1,0-0.2,0.1-0.3,0.1
		c-0.1,0-0.2,0-0.3,0H152V28.5z M150,30.7c0.2,0.3,0.4,0.6,0.6,0.8s0.6,0.4,0.9,0.5c0.3,0.1,0.7,0.2,1.1,0.2c0.4,0,0.8-0.1,1.1-0.2
		c0.4-0.1,0.7-0.3,0.9-0.6c0.3-0.2,0.5-0.5,0.6-0.8c0.2-0.3,0.2-0.7,0.2-1c0-0.4-0.1-0.7-0.2-1c-0.2-0.3-0.4-0.6-0.6-0.8
		c-0.3-0.2-0.6-0.4-0.9-0.5c-0.4-0.1-0.7-0.2-1.1-0.2c-0.4,0-0.8,0.1-1.1,0.2c-0.3,0.1-0.7,0.3-0.9,0.6c-0.3,0.2-0.5,0.5-0.6,0.8
		c-0.2,0.3-0.2,0.7-0.2,1C149.7,30,149.8,30.4,150,30.7 M150.4,28.8c0.1-0.3,0.3-0.5,0.5-0.7c0.2-0.2,0.5-0.4,0.8-0.5
		c0.3-0.1,0.6-0.2,0.9-0.2c0.3,0,0.7,0.1,0.9,0.2c0.3,0.1,0.5,0.3,0.8,0.5c0.2,0.2,0.4,0.4,0.5,0.7c0.1,0.3,0.2,0.6,0.2,0.9
		c0,0.3-0.1,0.6-0.2,0.9c-0.1,0.3-0.3,0.5-0.5,0.7c-0.2,0.2-0.5,0.4-0.8,0.5c-0.3,0.1-0.6,0.2-0.9,0.2c-0.3,0-0.7-0.1-0.9-0.2
		c-0.3-0.1-0.5-0.3-0.8-0.5c-0.2-0.2-0.4-0.4-0.5-0.7c-0.1-0.3-0.2-0.6-0.2-0.9C150.2,29.4,150.3,29.1,150.4,28.8"/>
</g>
</svg>
